<svg width="18" height="16" viewBox="0 0 18 16" fill="none" xmlns="http://www.w3.org/2000/svg">
<path d="M2.16477 8.87386L8.45974 14.7873C8.67658 14.991 8.785 15.0929 8.91283 15.1179C8.9704 15.1292 9.02962 15.1292 9.08719 15.1179C9.21502 15.0929 9.32344 14.991 9.54028 14.7873L15.8352 8.87386C17.6064 7.21006 17.8215 4.47211 16.3319 2.55215L16.0518 2.19115C14.2697 -0.105665 10.6928 0.279525 9.44064 2.90308C9.26377 3.27367 8.73625 3.27367 8.55938 2.90308C7.30723 0.279526 3.73027 -0.105665 1.94826 2.19115L1.66817 2.55215C0.178549 4.47211 0.393628 7.21006 2.16477 8.87386Z" stroke="white" stroke-width="1.34874"/>
</svg>
