<svg width="20" height="20" viewBox="0 0 20 20" fill="none" xmlns="http://www.w3.org/2000/svg">
<path d="M0.697864 0.697864L1.70651 0.908921C2.53507 1.08229 3.15829 1.80138 3.24237 2.68102L3.38924 4.21762M3.38924 4.21762L4.33948 12.5024C4.45542 13.5133 5.27507 14.2741 6.24819 14.2741H14.8922C16.436 14.2741 17.7816 13.1749 18.156 11.608L19.2352 7.09159C19.584 5.63175 18.5287 4.21762 17.0904 4.21762H3.38924ZM8.3875 17.7938C8.3875 18.6269 7.74198 19.3023 6.94569 19.3023C6.1494 19.3023 5.50388 18.6269 5.50388 17.7938C5.50388 16.9607 6.1494 16.2854 6.94569 16.2854C7.74198 16.2854 8.3875 16.9607 8.3875 17.7938ZM17.0383 17.7938C17.0383 18.6269 16.3928 19.3023 15.5965 19.3023C14.8002 19.3023 14.1547 18.6269 14.1547 17.7938C14.1547 16.9607 14.8002 16.2854 15.5965 16.2854C16.3928 16.2854 17.0383 16.9607 17.0383 17.7938Z" stroke="white" stroke-width="1.34874" stroke-linecap="round"/>
</svg>
